<svg width="20" height="20" viewBox="0 0 20 20" fill="none" xmlns="http://www.w3.org/2000/svg">
<g clip-path="url(#clip0_30159_22078)">
<path fill-rule="evenodd" clip-rule="evenodd" d="M12.9312 4.22378C12.746 4.17415 12.4951 4.16699 11.6665 4.16699H6.22235C5.64168 4.16699 5.24699 4.16742 4.94008 4.18791C4.64043 4.20791 4.48441 4.24434 4.37535 4.28841C3.95627 4.45777 3.62395 4.79009 3.45459 5.20917C3.41052 5.31823 3.37409 5.47425 3.35409 5.7739C3.35278 5.79345 3.35156 5.81336 3.35041 5.83366H12.9998C13.4334 5.83366 13.8166 5.83366 14.1584 5.83821C14.1508 5.62067 14.1364 5.50198 14.1097 5.40229C13.9556 4.82714 13.5064 4.37789 12.9312 4.22378ZM1.69112 5.66291C1.66649 6.03192 1.6665 6.48245 1.6665 7.02825V7.02826V7.05618H1.6668L1.6665 7.08366V11.3337C1.6665 13.2005 1.6665 14.1339 2.02982 14.847C2.34939 15.4742 2.85933 15.9841 3.48654 16.3037C4.19958 16.667 5.133 16.667 6.99984 16.667H12.9998C14.8667 16.667 15.8001 16.667 16.5131 16.3037C17.1403 15.9841 17.6503 15.4742 17.9699 14.847C18.3332 14.1339 18.3332 13.2005 18.3332 11.3337V11.167C18.3332 9.30015 18.3332 8.36673 17.9699 7.65369C17.6503 7.02648 17.1403 6.51655 16.5131 6.19697C16.309 6.09295 16.0868 6.01872 15.8298 5.96574C15.822 5.58165 15.7973 5.26105 15.7196 4.97093C15.4114 3.82062 14.5129 2.92213 13.3626 2.61391C12.9362 2.49966 12.444 2.49992 11.7812 2.50028L11.6665 2.50032L6.19444 2.50032C5.64863 2.50032 5.1981 2.50031 4.82909 2.52494C4.44654 2.55047 4.09247 2.60511 3.75086 2.74316C2.9127 3.08189 2.24807 3.74652 1.90934 4.58468C1.77129 4.92629 1.71665 5.28036 1.69112 5.66291ZM15.0534 7.5402C14.5812 7.50162 13.9608 7.50032 12.9998 7.50032H3.33317V11.3337C3.33317 12.2946 3.33447 12.915 3.37305 13.3873C3.41004 13.84 3.47284 14.0079 3.51483 14.0903C3.67462 14.4039 3.92958 14.6589 4.24319 14.8187C4.32559 14.8607 4.49346 14.9235 4.94623 14.9604C5.41846 14.999 6.03892 15.0003 6.99984 15.0003H12.9998C13.9608 15.0003 14.5812 14.999 15.0534 14.9604C15.5062 14.9235 15.6741 14.8607 15.7565 14.8187C16.0701 14.6589 16.3251 14.4039 16.4848 14.0903C16.5268 14.0079 16.5896 13.84 16.6266 13.3873C16.6652 12.915 16.6665 12.2946 16.6665 11.3337V11.167C16.6665 10.2061 16.6652 9.58561 16.6266 9.11338C16.5896 8.66061 16.5268 8.49275 16.4848 8.41034C16.3251 8.09674 16.0701 7.84177 15.7565 7.68198C15.6741 7.63999 15.5062 7.5772 15.0534 7.5402ZM13.3332 10.8337C12.8729 10.8337 12.4998 11.2068 12.4998 11.667C12.4998 12.1272 12.8729 12.5003 13.3332 12.5003H14.1665C14.6267 12.5003 14.9998 12.1272 14.9998 11.667C14.9998 11.2068 14.6267 10.8337 14.1665 10.8337H13.3332Z" fill="#8F8F8F"/>
</g>
<defs>
<clipPath id="clip0_30159_22078">
<rect width="16.6667" height="16.6667" fill="white" transform="translate(1.6665 1.66675)"/>
</clipPath>
</defs>
</svg>
