<svg width="20" height="20" viewBox="0 0 20 20" fill="none" xmlns="http://www.w3.org/2000/svg">
<path fill-rule="evenodd" clip-rule="evenodd" d="M3.25 10C3.25 9.39476 3.32966 8.80812 3.47906 8.25H6.85463C6.78792 8.80938 6.75 9.39391 6.75 10C6.75 10.6061 6.78791 11.1906 6.85463 11.75H3.47906C3.32966 11.1919 3.25 10.6052 3.25 10ZM7.10979 13.25H4.08249C4.95087 14.8278 6.43189 16.0208 8.20506 16.5087C7.80853 15.6426 7.39438 14.5372 7.10979 13.25ZM11.7949 16.5087C13.5681 16.0208 15.0491 14.8278 15.9175 13.25H12.8902C12.6056 14.5372 12.1915 15.6426 11.7949 16.5087ZM11.35 13.25C10.981 14.7524 10.4274 15.9608 10 16.7485C9.57259 15.9608 9.01897 14.7524 8.65001 13.25H11.35ZM11.6335 11.75H8.36649C8.29264 11.1932 8.25 10.6083 8.25 10C8.25 9.39168 8.29264 8.80679 8.36649 8.25H11.6335C11.7074 8.80679 11.75 9.39168 11.75 10C11.75 10.6083 11.7074 11.1932 11.6335 11.75ZM13.1454 11.75H16.5209C16.6703 11.1919 16.75 10.6052 16.75 10C16.75 9.39476 16.6703 8.80812 16.5209 8.25H13.1454C13.2121 8.80938 13.25 9.39391 13.25 10C13.25 10.6061 13.2121 11.1906 13.1454 11.75ZM12.8902 6.75H15.9175C15.0491 5.17223 13.5681 3.97914 11.7949 3.49125C12.1914 4.3574 12.6056 5.46279 12.8902 6.75ZM8.20509 3.49125C6.43191 3.97914 4.95087 5.17223 4.08249 6.75H7.1098C7.3944 5.46278 7.80855 4.3574 8.20509 3.49125ZM8.65002 6.75H11.35C10.981 5.24761 10.4274 4.03922 10 3.25152C9.5726 4.03922 9.01898 5.24761 8.65002 6.75ZM10 1.75C5.44365 1.75 1.75 5.44365 1.75 10C1.75 14.5563 5.44365 18.25 10 18.25C14.5563 18.25 18.25 14.5563 18.25 10C18.25 5.44365 14.5563 1.75 10 1.75Z" fill="#8F8F8F"/>
</svg>
