<svg width="20" height="20" viewBox="0 0 20 20" fill="none" xmlns="http://www.w3.org/2000/svg">
<path fill-rule="evenodd" clip-rule="evenodd" d="M15.4729 5.76166C15.3091 5.72838 15.1372 5.75396 14.9955 5.83654L14.9746 5.84877L11.8439 7.41153H6.3335C5.69159 7.41153 5.12276 7.64945 4.71904 8.01902C4.35107 8.35588 4.0835 8.99757 4.0835 9.57479C4.0835 10.152 4.35104 10.7935 4.71904 11.1304C4.92573 11.3196 5.17571 11.4743 5.45661 11.5802C5.72437 11.6812 6.02023 11.7379 6.3335 11.7379H7.0963H7.78681H9.44379H11.8439L14.9746 13.3008L14.9955 13.313C15.0919 13.3692 15.2094 13.4019 15.3335 13.4019C15.5152 13.4019 15.6673 13.3347 15.7694 13.2413C15.8705 13.1488 15.9168 13.0382 15.9168 12.9301V6.21949C15.9168 6.14425 15.8937 6.06514 15.8422 5.99104C15.7657 5.88106 15.6367 5.79497 15.4729 5.76166ZM14.2626 4.52981C14.7366 4.26148 15.2777 4.19371 15.7721 4.29417C16.2744 4.39626 16.7553 4.67823 17.0743 5.13689C17.2952 5.45458 17.4168 5.83028 17.4168 6.21949V12.9301C17.4168 13.4961 17.1647 13.9958 16.7832 14.3451C16.4027 14.6934 15.8882 14.8995 15.3335 14.8995C14.9592 14.8995 14.5886 14.8042 14.2627 14.6198L11.4898 13.2355H9.70859H8.18545H7.05797H6.3335C6.05497 13.2355 5.78276 13.2071 5.52027 13.153C4.82624 13.01 4.20021 12.6873 3.70531 12.2342C2.98752 11.5771 2.5835 10.5144 2.5835 9.57479C2.5835 8.63526 2.9875 7.57232 3.70531 6.91521C4.38738 6.29081 5.31855 5.91394 6.3335 5.91394H11.4898L14.2626 4.52981Z" fill="#8F8F8F"/>
<path fill-rule="evenodd" clip-rule="evenodd" d="M12.4168 6.66274L12.4168 12.4867L10.9168 12.4867L10.9168 6.66274H12.4168Z" fill="#8F8F8F"/>
<path d="M7.31336 14.6815L7.05797 13.2355H6.3335C6.05497 13.2355 5.78276 13.2071 5.52027 13.153L5.83615 14.9416C5.9339 15.4951 6.25741 15.9493 6.68798 16.2365C7.11788 16.5232 7.65895 16.6476 8.20728 16.5511C8.75561 16.4545 9.22145 16.1529 9.52719 15.7367C9.83341 15.3197 9.9818 14.7825 9.88405 14.229L9.70859 13.2355H8.18545L8.40684 14.489C8.4289 14.614 8.39804 14.7415 8.31757 14.8511C8.23662 14.9613 8.10836 15.0478 7.94681 15.0762C7.78526 15.1047 7.63509 15.0672 7.52128 14.9912C7.40812 14.9158 7.33543 14.8064 7.31336 14.6815Z" fill="#8F8F8F"/>
</svg>
