<svg width="20" height="20" viewBox="0 0 20 20" fill="none" xmlns="http://www.w3.org/2000/svg">
<path d="M16.9804 2.88896C16.3636 2.34249 15.4256 2.37566 14.8492 2.96437L9.07479 8.68554C8.77807 8.97952 8.77504 9.45919 9.06802 9.75692C9.361 10.0546 9.83904 10.0577 10.1358 9.76371L15.915 4.03782C15.9515 4.0009 16.0121 4.02315 15.9732 4.07097L10.8448 10.5223C10.5848 10.8494 10.6383 11.3261 10.9643 11.587C11.2903 11.8479 11.7653 11.7943 12.0253 11.4672L17.1492 5.02145C17.6761 4.38051 17.6009 3.4388 16.9804 2.88896Z" fill="#8F8F8F"/>
<path fill-rule="evenodd" clip-rule="evenodd" d="M7.0734 10.5198C5.40451 10.5198 4.17653 11.8784 4.10584 13.4644C4.07099 14.2461 3.72797 14.6444 3.41517 14.9072C3.09654 15.175 2.6699 15.3684 2.538 15.7948C2.43006 16.1438 2.5654 16.5143 2.84939 16.7352C3.4847 17.2294 4.81133 17.8542 6.72774 17.2535C8.72629 16.6271 10.0417 15.1626 10.0417 13.4983C10.0417 11.8533 8.71276 10.5198 7.0734 10.5198ZM5.61436 13.5321C5.6529 12.6675 6.29755 12.035 7.0734 12.035C7.8788 12.035 8.5317 12.6901 8.5317 13.4983C8.5317 14.2871 7.87452 15.3067 6.27751 15.8072C5.55606 16.0334 4.98663 16.0138 4.56362 15.9091C5.05446 15.4428 5.56195 14.708 5.61436 13.5321Z" fill="#8F8F8F"/>
</svg>
