<svg xmlns="http://www.w3.org/2000/svg" width="99" height="22" fill="none">
  <path fill-rule="evenodd" clip-rule="evenodd" d="M13.796 15.681c0 3.456-2.752 5.962-7.123 5.962A9.524 9.524 0 010 18.648l1.462-1.617C2.83 18.334 4.44 19.6 6.644 19.6c2.45 0 5.09-1.374 5.09-3.84 0-2.047-1.628-3.383-5.049-4.437C2.787 10.133.807 8.515.807 5.476.807 2.468 3.353 0 6.98 0c2.71 0 4.405 1.155 6.054 2.63l-1.437 1.595c-1.446-1.281-2.825-2.15-4.516-2.15-2.098 0-4.17 1.353-4.17 3.3 0 1.765 1.015 2.89 4.595 3.985 3.28 1.01 6.29 2.575 6.29 6.32v.002zM31.488 1.993a1.716 1.716 0 103.431 0 1.716 1.716 0 00-3.431 0zm16.6-1.364H46.02v20.675h2.068V.629zm4.825 19.986s1.273 1.034 5.514 1.034h-.003c4.186 0 7.584-3.062 7.584-7.245s-3.395-7.232-7.581-7.232a7.766 7.766 0 00-3.446.704V.63h-2.068v19.986zm15.509-6.193a7.577 7.577 0 1015.155 0 7.577 7.577 0 00-15.155 0zm27.693 6.888h2.699l-5.967-7.107 5.565-6.666h-2.684L91.502 12.6l-4.248-5.063h-2.699l5.605 6.675-5.926 7.098h2.683l4.587-5.495 4.611 5.495zM76.012 8.891a5.518 5.518 0 10-.002 11.036 5.518 5.518 0 00.002-11.036zm-17.586.353a6.144 6.144 0 00-3.446 1.116v8.534c1.071.52 2.258.758 3.446.689 3.045 0 5.514-2.127 5.514-5.17 0-3.042-2.472-5.17-5.516-5.17h.002zM39.13.629h2.068v20.675h-2.068V.629zM26.377 21.305l-7.232-7.232 6.547-6.552h2.924l-6.548 6.552 7.232 7.232h-2.923zM17.07.63v20.675h2.068V.629H17.07zm15.172 20.676h2.068V7.521h-2.068v13.784z" fill="#fff"/>
</svg>