<svg width="20" height="20" viewBox="0 0 20 20" fill="none" xmlns="http://www.w3.org/2000/svg">
<path fill-rule="evenodd" clip-rule="evenodd" d="M5.83334 11.6667C6.24755 11.6667 6.58334 12.0025 6.58334 12.4167V15.9167H13.4167V12.4167C13.4167 12.0025 13.7525 11.6667 14.1667 11.6667C14.5809 11.6667 14.9167 12.0025 14.9167 12.4167V16.6667C14.9167 17.0809 14.5809 17.4167 14.1667 17.4167H5.83334C5.41912 17.4167 5.08334 17.0809 5.08334 16.6667V12.4167C5.08334 12.0025 5.41912 11.6667 5.83334 11.6667Z" fill="#8F8F8F"/>
<path fill-rule="evenodd" clip-rule="evenodd" d="M2.5 16.6667C2.5 16.2525 2.83579 15.9167 3.25 15.9167H16.75C17.1642 15.9167 17.5 16.2525 17.5 16.6667C17.5 17.0809 17.1642 17.4167 16.75 17.4167H3.25C2.83579 17.4167 2.5 17.0809 2.5 16.6667Z" fill="#8F8F8F"/>
<path fill-rule="evenodd" clip-rule="evenodd" d="M14.0833 8.33337C14.0833 8.83964 14.4937 9.25004 15 9.25004C15.5063 9.25004 15.9167 8.83964 15.9167 8.33337H17.4167C17.4167 9.66806 16.3347 10.75 15 10.75C13.6653 10.75 12.5833 9.66806 12.5833 8.33337H14.0833Z" fill="#8F8F8F"/>
<path fill-rule="evenodd" clip-rule="evenodd" d="M13.3333 7.58338C13.7476 7.58338 14.0833 7.91916 14.0833 8.33337C14.0833 8.83964 14.4937 9.25004 15 9.25004C15.5063 9.25004 15.9167 8.83964 15.9167 8.33337C15.9167 7.91916 16.2525 7.58338 16.6667 7.58338C17.0809 7.58338 17.4167 7.91916 17.4167 8.33337C17.4167 9.66806 16.3347 10.75 15 10.75C13.6653 10.75 12.5833 9.66806 12.5833 8.33337C12.5833 7.91916 12.9191 7.58338 13.3333 7.58338Z" fill="#8F8F8F"/>
<path fill-rule="evenodd" clip-rule="evenodd" d="M10 7.58338C10.4142 7.58338 10.75 7.91917 10.75 8.33338C10.75 8.83964 11.1604 9.25005 11.6667 9.25005C12.1729 9.25005 12.5833 8.83964 12.5833 8.33337C12.5833 7.91916 12.9191 7.58338 13.3333 7.58338C13.7476 7.58338 14.0833 7.91916 14.0833 8.33337C14.0833 9.66806 13.0014 10.75 11.6667 10.75C10.332 10.75 9.25 9.66807 9.25 8.33338C9.25 7.91917 9.58579 7.58338 10 7.58338Z" fill="#8F8F8F"/>
<path fill-rule="evenodd" clip-rule="evenodd" d="M6.66667 7.58338C7.08089 7.58338 7.41667 7.91917 7.41667 8.33338C7.41667 8.83964 7.82708 9.25005 8.33334 9.25005C8.8396 9.25005 9.25 8.83964 9.25 8.33338C9.25 7.91917 9.58579 7.58338 10 7.58338C10.4142 7.58338 10.75 7.91917 10.75 8.33338C10.75 9.66807 9.66803 10.75 8.33334 10.75C6.99865 10.75 5.91667 9.66807 5.91667 8.33338C5.91667 7.91917 6.25246 7.58338 6.66667 7.58338Z" fill="#8F8F8F"/>
<path fill-rule="evenodd" clip-rule="evenodd" d="M3.33334 7.58338C3.74755 7.58338 4.08334 7.91917 4.08334 8.33338C4.08334 8.83964 4.49374 9.25005 5.00001 9.25005C5.50627 9.25005 5.91667 8.83964 5.91667 8.33338C5.91667 7.91917 6.25246 7.58338 6.66667 7.58338C7.08089 7.58338 7.41667 7.91917 7.41667 8.33338C7.41667 9.66807 6.33469 10.75 5.00001 10.75C3.66532 10.75 2.58334 9.66807 2.58334 8.33338C2.58334 7.91917 2.91912 7.58338 3.33334 7.58338Z" fill="#8F8F8F"/>
<path fill-rule="evenodd" clip-rule="evenodd" d="M7.25262 2.58331C7.2825 2.58334 7.31268 2.58337 7.34318 2.58337H12.6568C12.6873 2.58337 12.7175 2.58334 12.7474 2.58331C13.2083 2.58284 13.5966 2.58243 13.9582 2.69792C14.2756 2.79928 14.5686 2.96518 14.8188 3.18519C15.1039 3.43586 15.3033 3.76903 15.5401 4.1645C15.5554 4.19013 15.5709 4.21603 15.5866 4.24218L16.9298 6.4808C16.9374 6.49357 16.945 6.5062 16.9525 6.51871C17.0719 6.71741 17.1727 6.88525 17.2458 7.06912C17.3102 7.2311 17.3568 7.39957 17.385 7.57159C17.4169 7.76685 17.4168 7.96264 17.4167 8.19443C17.4167 8.20903 17.4167 8.22377 17.4167 8.23867L17.4167 8.33337H15.9167L15.9167 8.23867C15.9167 7.94018 15.9144 7.87341 15.9047 7.81372C15.894 7.74847 15.8763 7.68457 15.8519 7.62312C15.8295 7.56691 15.7971 7.5085 15.6435 7.25255L14.3004 5.01392C13.9916 4.49932 13.9148 4.38767 13.8283 4.31165C13.7334 4.2282 13.6223 4.16527 13.5019 4.12682C13.3922 4.0918 13.257 4.08337 12.6568 4.08337H7.34318C6.74305 4.08337 6.60779 4.0918 6.49813 4.12682C6.37774 4.16527 6.26659 4.2282 6.17168 4.31165C6.08524 4.38767 6.00842 4.49932 5.69965 5.01393L4.35648 7.25255C4.20291 7.5085 4.17049 7.56691 4.14815 7.62312C4.12373 7.68457 4.10603 7.74847 4.09536 7.81372C4.0856 7.87341 4.08334 7.94018 4.08334 8.23867L4.08334 8.33338H2.58334L2.58334 8.23867C2.58334 8.22377 2.58333 8.20904 2.58333 8.19444C2.5832 7.96265 2.5831 7.76685 2.61503 7.57159C2.64317 7.39957 2.68983 7.2311 2.75421 7.06912C2.82728 6.88526 2.92811 6.71742 3.04747 6.51872C3.05499 6.50621 3.06258 6.49357 3.07024 6.4808L4.41341 4.24218C4.42911 4.21603 4.44461 4.19013 4.45995 4.1645C4.69668 3.76903 4.89611 3.43586 5.18118 3.18519C5.4314 2.96518 5.72441 2.79928 6.04181 2.69792C6.40342 2.58243 6.79172 2.58284 7.25262 2.58331Z" fill="#8F8F8F"/>
</svg>
