<svg width="20" height="20" viewBox="0 0 20 20" fill="none" xmlns="http://www.w3.org/2000/svg">
<path fill-rule="evenodd" clip-rule="evenodd" d="M2.58519 4.35271C2.5 4.67062 2.5 5.05811 2.5 5.83309C2.5 6.60807 2.5 6.99555 2.58519 7.31347C2.81635 8.1762 3.49022 8.85007 4.35295 9.08124C4.67087 9.16642 5.05836 9.16642 5.83333 9.16642C6.60831 9.16642 6.9958 9.16642 7.31371 9.08124C8.17644 8.85007 8.85031 8.1762 9.08148 7.31347C9.16667 6.99555 9.16667 6.60807 9.16667 5.83309C9.16667 5.05811 9.16667 4.67062 9.08148 4.35271C8.85031 3.48998 8.17644 2.81611 7.31371 2.58494C6.9958 2.49976 6.60831 2.49976 5.83333 2.49976C5.05836 2.49976 4.67087 2.49976 4.35295 2.58494C3.49022 2.81611 2.81635 3.48998 2.58519 4.35271ZM4.25749 4.62143C4.16667 4.79969 4.16667 5.03305 4.16667 5.49976V6.16642C4.16667 6.63313 4.16667 6.86649 4.25749 7.04475C4.33739 7.20155 4.46487 7.32903 4.62167 7.40893C4.79993 7.49976 5.03329 7.49976 5.5 7.49976H6.16667C6.63338 7.49976 6.86673 7.49976 7.04499 7.40893C7.20179 7.32903 7.32928 7.20155 7.40917 7.04475C7.5 6.86649 7.5 6.63313 7.5 6.16642V5.49976C7.5 5.03305 7.5 4.79969 7.40917 4.62143C7.32928 4.46463 7.20179 4.33715 7.04499 4.25725C6.86673 4.16642 6.63338 4.16642 6.16667 4.16642H5.5C5.03329 4.16642 4.79993 4.16642 4.62167 4.25725C4.46487 4.33715 4.33739 4.46463 4.25749 4.62143Z" fill="#8F8F8F"/>
<path fill-rule="evenodd" clip-rule="evenodd" d="M2.58519 12.686C2.5 13.004 2.5 13.3914 2.5 14.1664C2.5 14.9414 2.5 15.3289 2.58519 15.6468C2.81635 16.5095 3.49022 17.1834 4.35295 17.4146C4.67087 17.4998 5.05836 17.4998 5.83333 17.4998C6.60831 17.4998 6.9958 17.4998 7.31371 17.4146C8.17644 17.1834 8.85031 16.5095 9.08148 15.6468C9.16667 15.3289 9.16667 14.9414 9.16667 14.1664C9.16667 13.3914 9.16667 13.004 9.08148 12.686C8.85031 11.8233 8.17644 11.1494 7.31371 10.9183C6.9958 10.8331 6.60831 10.8331 5.83333 10.8331C5.05836 10.8331 4.67087 10.8331 4.35295 10.9183C3.49022 11.1494 2.81635 11.8233 2.58519 12.686ZM4.25749 12.9548C4.16667 13.133 4.16667 13.3664 4.16667 13.8331V14.4998C4.16667 14.9665 4.16667 15.1998 4.25749 15.3781C4.33739 15.5349 4.46487 15.6624 4.62167 15.7423C4.79993 15.8331 5.03329 15.8331 5.5 15.8331H6.16667C6.63338 15.8331 6.86673 15.8331 7.04499 15.7423C7.20179 15.6624 7.32928 15.5349 7.40917 15.3781C7.5 15.1998 7.5 14.9665 7.5 14.4998V13.8331C7.5 13.3664 7.5 13.133 7.40917 12.9548C7.32928 12.798 7.20179 12.6705 7.04499 12.5906C6.86673 12.4998 6.63338 12.4998 6.16667 12.4998H5.5C5.03329 12.4998 4.79993 12.4998 4.62167 12.5906C4.46487 12.6705 4.33739 12.798 4.25749 12.9548Z" fill="#8F8F8F"/>
<path fill-rule="evenodd" clip-rule="evenodd" d="M10.9185 12.686C10.8333 13.004 10.8333 13.3914 10.8333 14.1664C10.8333 14.9414 10.8333 15.3289 10.9185 15.6468C11.1497 16.5095 11.8236 17.1834 12.6863 17.4146C13.0042 17.4998 13.3917 17.4998 14.1667 17.4998C14.9416 17.4998 15.3291 17.4998 15.647 17.4146C16.5098 17.1834 17.1836 16.5095 17.4148 15.6468C17.5 15.3289 17.5 14.9414 17.5 14.1664C17.5 13.3914 17.5 13.004 17.4148 12.686C17.1836 11.8233 16.5098 11.1494 15.647 10.9183C15.3291 10.8331 14.9416 10.8331 14.1667 10.8331C13.3917 10.8331 13.0042 10.8331 12.6863 10.9183C11.8236 11.1494 11.1497 11.8233 10.9185 12.686ZM12.5908 12.9548C12.5 13.133 12.5 13.3664 12.5 13.8331V14.4998C12.5 14.9665 12.5 15.1998 12.5908 15.3781C12.6707 15.5349 12.7982 15.6624 12.955 15.7423C13.1333 15.8331 13.3666 15.8331 13.8333 15.8331H14.5C14.9667 15.8331 15.2001 15.8331 15.3783 15.7423C15.5351 15.6624 15.6626 15.5349 15.7425 15.3781C15.8333 15.1998 15.8333 14.9665 15.8333 14.4998V13.8331C15.8333 13.3664 15.8333 13.133 15.7425 12.9548C15.6626 12.798 15.5351 12.6705 15.3783 12.5906C15.2001 12.4998 14.9667 12.4998 14.5 12.4998H13.8333C13.3666 12.4998 13.1333 12.4998 12.955 12.5906C12.7982 12.6705 12.6707 12.798 12.5908 12.9548Z" fill="#8F8F8F"/>
<path fill-rule="evenodd" clip-rule="evenodd" d="M12.9167 2.48921C12.6316 2.65377 12.3576 2.92777 11.8096 3.47576C11.2617 4.02375 10.9877 4.29774 10.8231 4.58278C10.3765 5.35628 10.3765 6.30928 10.8231 7.08278C10.9877 7.36782 11.2617 7.64181 11.8096 8.1898C12.3576 8.73779 12.6316 9.01179 12.9167 9.17635C13.6902 9.62294 14.6432 9.62294 15.4167 9.17635C15.7017 9.01179 15.9757 8.73779 16.5237 8.1898C17.0717 7.64181 17.3457 7.36782 17.5102 7.08278C17.9568 6.30928 17.9568 5.35628 17.5102 4.58278C17.3457 4.29774 17.0717 4.02375 16.5237 3.47576C15.9757 2.92777 15.7017 2.65377 15.4167 2.48921C14.6432 2.04262 13.6902 2.04262 12.9167 2.48921ZM13.9092 3.86228C13.7189 3.92411 13.5539 4.08911 13.2239 4.41913L12.7525 4.89053C12.4224 5.22055 12.2574 5.38555 12.1956 5.57583C12.1412 5.7432 12.1412 5.92349 12.1956 6.09086C12.2574 6.28113 12.4224 6.44614 12.7525 6.77615L13.2239 7.24756C13.5539 7.57757 13.7189 7.74258 13.9092 7.8044C14.0765 7.85878 14.2568 7.85878 14.4242 7.8044C14.6145 7.74258 14.7795 7.57757 15.1095 7.24756L15.5809 6.77615C15.9109 6.44614 16.0759 6.28113 16.1377 6.09086C16.1921 5.92349 16.1921 5.7432 16.1377 5.57583C16.0759 5.38555 15.9109 5.22055 15.5809 4.89053L15.1095 4.41913C14.7795 4.08911 14.6145 3.92411 14.4242 3.86228C14.2568 3.8079 14.0765 3.8079 13.9092 3.86228Z" fill="#8F8F8F"/>
</svg>
