<svg width="20" height="20" viewBox="0 0 20 20" fill="none" xmlns="http://www.w3.org/2000/svg">
<path d="M6.20888 11.1024C5.85033 10.895 5.39154 11.0175 5.18413 11.3761C4.97672 11.7346 5.09924 12.1934 5.45779 12.4008C6.17076 12.8132 6.69733 13.5099 6.884 14.3326C6.97566 14.7365 7.37743 14.9897 7.78138 14.898C8.18532 14.8063 8.43848 14.4046 8.34682 14.0006C8.06568 12.7616 7.27509 11.7192 6.20888 11.1024Z" fill="#8F8F8F"/>
<path d="M7.94972 5.02271C7.61823 4.77434 7.14816 4.84172 6.89979 5.17321C6.65532 5.49948 6.26799 5.70825 5.83169 5.70825C5.41747 5.70825 5.08169 6.04404 5.08169 6.45825C5.08169 6.87247 5.41747 7.20825 5.83169 7.20825C6.76036 7.20825 7.58469 6.76067 8.10021 6.07264C8.34858 5.74116 8.28121 5.27109 7.94972 5.02271Z" fill="#8F8F8F"/>
<path d="M13.272 5.72705C13.2133 5.31701 12.8334 5.03216 12.4233 5.09081C12.0133 5.14946 11.7284 5.52941 11.7871 5.93945C11.9915 7.36824 13.0168 8.52877 14.3694 8.93131C14.7664 9.04946 15.184 8.82341 15.3022 8.42641C15.4203 8.0294 15.1943 7.61178 14.7973 7.49363C13.9982 7.25583 13.3923 6.56807 13.272 5.72705Z" fill="#8F8F8F"/>
<path fill-rule="evenodd" clip-rule="evenodd" d="M1.75 11.6666C1.75 10.9421 1.96009 10.2668 2.32267 9.69809C1.95803 9.04776 1.75 8.29745 1.75 7.49992C1.75 5.30472 3.3213 3.4774 5.40093 3.08003C6.13818 2.02519 7.36289 1.33325 8.75 1.33325C9.18503 1.33325 9.60531 1.40154 10 1.52834C10.3947 1.40154 10.815 1.33325 11.25 1.33325C12.6371 1.33325 13.8618 2.02519 14.5991 3.08003C16.6787 3.4774 18.25 5.30472 18.25 7.49992C18.25 7.57109 18.2483 7.6419 18.2451 7.71228C18.2117 8.43128 18.0095 9.1062 17.6774 9.69835C18.0397 10.267 18.25 10.9428 18.25 11.6666C18.25 12.9602 17.5802 14.0961 16.5704 14.7485C16.5789 14.8313 16.5833 14.9151 16.5833 14.9999C16.5833 16.3346 15.5014 17.4166 14.1667 17.4166C14.1172 17.4166 14.0681 17.4151 14.0194 17.4122C13.5111 18.1682 12.6477 18.6666 11.6667 18.6666C11.0436 18.6666 10.4674 18.4651 10 18.1246C9.5326 18.4651 8.95645 18.6666 8.33333 18.6666C7.35228 18.6666 6.48886 18.1682 5.98057 17.4121C5.93182 17.4151 5.88273 17.4166 5.83333 17.4166C4.49865 17.4166 3.41667 16.3346 3.41667 14.9999C3.41667 14.9151 3.42106 14.8313 3.42965 14.7485C2.41976 14.0961 1.75 12.9602 1.75 11.6666ZM6.50247 4.14175C6.94788 3.35866 7.78806 2.83325 8.75 2.83325C8.92146 2.83325 9.08857 2.84986 9.25 2.88146V16.8016C9.01047 17.0286 8.68809 17.1666 8.33333 17.1666C7.76488 17.1666 7.27772 16.8105 7.08627 16.3067C6.94182 15.9265 6.5207 15.7307 6.13693 15.8653C6.04288 15.8983 5.94104 15.9166 5.83333 15.9166C5.32707 15.9166 4.91667 15.5062 4.91667 14.9999C4.91667 14.8737 4.94175 14.7553 4.9865 14.6479C5.14573 14.2657 4.96513 13.8267 4.58303 13.6673C3.79886 13.34 3.25 12.5665 3.25 11.6666C3.25 10.47 4.22005 9.49992 5.41667 9.49992C5.75034 9.49992 6.06442 9.57483 6.34485 9.70804C6.71899 9.88578 7.16638 9.72656 7.34411 9.35242C7.52185 8.97827 7.36263 8.53089 6.98849 8.35315C6.5112 8.12642 5.97766 7.99992 5.41667 7.99992C4.69191 7.99992 4.01627 8.2102 3.44742 8.57306C3.31985 8.24013 3.25 7.87853 3.25 7.49992C3.25 5.95149 4.42371 4.67622 5.92952 4.51677C6.16976 4.49134 6.38303 4.35174 6.50247 4.14175ZM10.75 16.8016C10.9895 17.0286 11.3119 17.1666 11.6667 17.1666C12.0146 17.1666 12.3322 17.0332 12.57 16.8141C12.0672 16.3712 11.75 15.7226 11.75 14.9999C11.75 14.5857 12.0858 14.2499 12.5 14.2499C12.9142 14.2499 13.25 14.5857 13.25 14.9999C13.25 15.4995 13.6496 15.9057 14.1465 15.9164L14.1667 15.9166C14.6729 15.9166 15.0833 15.5062 15.0833 14.9999C15.0833 14.8737 15.0582 14.7553 15.0135 14.6479C14.8543 14.2657 15.0349 13.8267 15.417 13.6673C16.2011 13.34 16.75 12.5665 16.75 11.6666C16.75 11.4177 16.7082 11.179 16.6312 10.9567C15.8507 11.608 14.8461 11.9999 13.75 11.9999C13.3358 11.9999 13 11.6641 13 11.2499C13 10.8357 13.3358 10.4999 13.75 10.4999C15.3592 10.4999 16.6725 9.23295 16.7467 7.64212C16.7489 7.595 16.75 7.5476 16.75 7.49992C16.75 5.95149 15.5763 4.67622 14.0705 4.51677C13.8302 4.49134 13.617 4.35174 13.4975 4.14175C13.0521 3.35866 12.2119 2.83325 11.25 2.83325C11.0785 2.83325 10.9114 2.84986 10.75 2.88146V16.8016Z" fill="#8F8F8F"/>
</svg>
