<svg width="20" height="20" viewBox="0 0 20 20" fill="none" xmlns="http://www.w3.org/2000/svg">
<path fill-rule="evenodd" clip-rule="evenodd" d="M10.0001 11.6666C9.07965 11.6666 8.33346 10.9204 8.33346 9.99992C8.33346 9.07944 9.07965 8.33325 10.0001 8.33325C10.9206 8.33325 11.6668 9.07944 11.6668 9.99992C11.6668 10.9204 10.9206 11.6666 10.0001 11.6666ZM10.0001 13.3333C8.15918 13.3333 6.6668 11.8409 6.6668 9.99992C6.6668 8.15897 8.15918 6.66659 10.0001 6.66659C11.8411 6.66659 13.3335 8.15897 13.3335 9.99992C13.3335 11.8409 11.8411 13.3333 10.0001 13.3333Z" fill="#8F8F8F"/>
<path fill-rule="evenodd" clip-rule="evenodd" d="M10.689 3.33325C11.0676 3.33325 11.3986 3.58841 11.4949 3.95451L11.5434 4.13866C11.8888 5.45117 13.2183 6.24838 14.5387 5.93477L14.8559 5.85944C15.226 5.77153 15.6087 5.94545 15.7859 6.2821L16.1753 7.02206C16.3491 7.35213 16.2823 7.75744 16.0119 8.01434L15.8297 8.18742C14.7922 9.17305 14.7922 10.8268 15.8297 11.8124L16.0119 11.9855C16.2823 12.2424 16.3491 12.6477 16.1753 12.9778L15.7859 13.7177C15.6087 14.0544 15.226 14.2283 14.8559 14.1404L14.5387 14.0651C13.2183 13.7515 11.8888 14.5487 11.5434 15.8612L11.4949 16.0453C11.3986 16.4114 11.0676 16.6666 10.689 16.6666H9.31126C8.9327 16.6666 8.6017 16.4114 8.50536 16.0453L8.4569 15.8612C8.1115 14.5487 6.782 13.7515 5.46153 14.0651L5.14437 14.1404C4.77423 14.2283 4.39156 14.0544 4.21437 13.7177L3.82492 12.9778C3.6512 12.6477 3.71797 12.2424 3.98839 11.9855L4.17058 11.8124C5.20808 10.8268 5.20808 9.17305 4.17058 8.18742L3.9884 8.01435C3.71797 7.75744 3.6512 7.35213 3.82492 7.02206L4.21437 6.2821C4.39156 5.94545 4.77423 5.77153 5.14437 5.85944L5.46153 5.93477C6.782 6.24838 8.1115 5.45117 8.4569 4.13866L8.50536 3.95451C8.6017 3.58841 8.9327 3.33325 9.31126 3.33325H10.689ZM13.1067 3.53035C12.8177 2.43207 11.8247 1.66659 10.689 1.66659H9.31126C8.17558 1.66659 7.18259 2.43207 6.89357 3.53035L6.84511 3.7145C6.72998 4.15201 6.28681 4.41774 5.84666 4.31321L5.52949 4.23788C4.41909 3.97416 3.27106 4.49591 2.73951 5.50585L2.35006 6.24581C1.82889 7.23603 2.02921 8.45197 2.84048 9.22268L3.02266 9.39575C3.3685 9.72429 3.3685 10.2755 3.02266 10.6041L2.84048 10.7772C2.02921 11.5479 1.82889 12.7638 2.35006 13.754L2.73951 14.494C3.27106 15.5039 4.41909 16.0257 5.52949 15.762L5.84666 15.6866C6.28681 15.5821 6.72998 15.8478 6.84511 16.2853L6.89357 16.4695C7.18259 17.5678 8.17558 18.3333 9.31126 18.3333H10.689C11.8247 18.3333 12.8177 17.5678 13.1067 16.4695L13.1551 16.2853C13.2703 15.8478 13.7134 15.5821 14.1536 15.6866L14.4708 15.762C15.5812 16.0257 16.7292 15.5039 17.2607 14.494L17.6502 13.754C18.1714 12.7638 17.971 11.5479 17.1598 10.7772L16.9776 10.6041C16.6318 10.2755 16.6318 9.72429 16.9776 9.39575L17.1598 9.22268C17.9711 8.45197 18.1714 7.23603 17.6502 6.24581L17.2607 5.50585C16.7292 4.49591 15.5812 3.97416 14.4708 4.23788L14.1536 4.31321C13.7134 4.41774 13.2703 4.15201 13.1551 3.7145L13.1067 3.53035Z" fill="#8F8F8F"/>
</svg>
