<svg width="20" height="20" viewBox="0 0 20 20" fill="none" xmlns="http://www.w3.org/2000/svg">
<path fill-rule="evenodd" clip-rule="evenodd" d="M5.83317 3.33325C4.45246 3.33325 3.33317 4.45254 3.33317 5.83325V14.1666C3.33317 15.5473 4.45246 16.6666 5.83317 16.6666H14.1665C15.5472 16.6666 16.6665 15.5473 16.6665 14.1666V5.83325C16.6665 4.45254 15.5472 3.33325 14.1665 3.33325H5.83317ZM1.6665 5.83325C1.6665 3.53207 3.53198 1.66659 5.83317 1.66659H14.1665C16.4677 1.66659 18.3332 3.53207 18.3332 5.83325V14.1666C18.3332 16.4678 16.4677 18.3333 14.1665 18.3333H5.83317C3.53198 18.3333 1.6665 16.4678 1.6665 14.1666V5.83325Z" fill="#8F8F8F"/>
<path d="M7.49984 13.3333C7.49984 13.7935 7.12674 14.1666 6.6665 14.1666C6.20627 14.1666 5.83317 13.7935 5.83317 13.3333L5.83317 9.99992C5.83317 9.53968 6.20627 9.16659 6.6665 9.16659C7.12674 9.16659 7.49984 9.53968 7.49984 9.99992L7.49984 13.3333Z" fill="#8F8F8F"/>
<path d="M10.8332 13.3333C10.8332 13.7935 10.4601 14.1666 9.99984 14.1666C9.5396 14.1666 9.1665 13.7935 9.1665 13.3333L9.1665 6.66659C9.1665 6.20635 9.5396 5.83325 9.99984 5.83325C10.4601 5.83325 10.8332 6.20635 10.8332 6.66659L10.8332 13.3333Z" fill="#8F8F8F"/>
<path d="M14.1665 13.3333C14.1665 13.7935 13.7934 14.1666 13.3332 14.1666C12.8729 14.1666 12.4998 13.7935 12.4998 13.3333V11.6666C12.4998 11.2063 12.8729 10.8333 13.3332 10.8333C13.7934 10.8333 14.1665 11.2063 14.1665 11.6666V13.3333Z" fill="#8F8F8F"/>
</svg>
