<svg width="93" height="56" viewBox="0 0 93 56" fill="none" xmlns="http://www.w3.org/2000/svg">
<g clip-path="url(#clip0_38965_62047)">
<path d="M20.1611 24.7414V24.543C20.1611 22.9791 19.2514 22.4062 17.8079 22.4062H15.6323V27.0762H17.8079C19.2514 27.0762 20.1611 26.4029 20.1611 24.7414Z" fill="#232323"/>
<path d="M34.3087 8.5C32.5874 8.5 31.3022 9.82579 31.3022 11.8247C31.3022 13.8238 32.5874 15.1494 34.3087 15.1494C36.03 15.1494 37.3152 13.8238 37.3152 11.8247C37.3152 9.82579 36.03 8.5 34.3087 8.5Z" fill="#232323"/>
<path d="M27.8945 33.798C29.5548 33.798 30.901 32.3095 30.901 30.4731C30.901 28.637 29.5548 27.1484 27.8945 27.1484C26.2339 27.1484 24.8877 28.637 24.8877 30.4731C24.8877 32.3095 26.2339 33.798 27.8945 33.798Z" fill="#232323"/>
<path d="M74.0732 33.798C75.7335 33.798 77.0797 32.3095 77.0797 30.4731C77.0797 28.637 75.7335 27.1484 74.0732 27.1484C72.4126 27.1484 71.0664 28.637 71.0664 30.4731C71.0664 32.3095 72.4126 33.798 74.0732 33.798Z" fill="#232323"/>
<path d="M83.1894 37.2708V18.6203H58.9023V-0.03125H-0.0478516V18.7351H9.72684V37.2708H-0.0478516V56.0371H92.964V37.2708H83.1894ZM7.92458 16.9732C5.72853 16.9732 3.94923 15.5688 3.94923 13.015V11.9068H5.92663V12.8761C5.92663 14.2817 6.71782 15.1518 7.92458 15.1518C9.1313 15.1518 9.92253 14.4388 9.92253 13.2518C9.92253 12.0651 9.17119 11.2337 8.16253 10.5411L6.59947 9.45224C5.25501 8.52167 4.16667 7.35421 4.16667 5.37582C4.16667 2.78345 5.8481 1.73444 7.90524 1.73444C9.96238 1.73444 11.6825 3.02034 11.6825 5.69245V6.6025H9.7051V5.75167C9.7051 4.22769 9.01295 3.55572 7.90524 3.55572C6.85676 3.55572 6.14528 4.18899 6.14528 5.37582C6.14528 6.56261 6.91714 7.23577 7.88591 7.88837L9.48767 9.03649C10.8128 9.96588 11.8999 11.0947 11.8999 13.0137C11.8999 15.6655 10.1194 16.9719 7.92458 16.9719V16.9732ZM13.6392 6.88165H15.6168V8.26667C16.1905 7.23817 17.1785 6.68346 18.3661 6.68346C19.7698 6.68346 20.9174 7.31673 21.4911 8.64252C22.0649 7.35662 23.2124 6.68346 24.6353 6.68346C26.6331 6.68346 28.1166 7.98989 28.1166 10.7007V16.7761H26.1391V11.0971C26.1391 9.31568 25.3479 8.42619 24.023 8.42619C22.6978 8.42619 21.8665 9.3169 21.8665 11.0971V16.7761H19.8893V11.0971C19.8893 9.31568 19.0787 8.42619 17.7535 8.42619C16.4286 8.42619 15.618 9.3169 15.618 11.0971V16.7761H13.6405V6.88165H13.6392ZM20.2191 35.4266L15.6302 28.1644V35.4266H13.6527V20.5853H18.0038C20.3965 20.5853 22.1372 21.8918 22.1372 24.3451V24.9386C22.1372 27.392 20.3965 28.5993 18.2018 28.7178L22.5927 35.4266H20.2191ZM32.876 35.4266H30.8985V33.9424C30.1267 34.9914 28.9804 35.6246 27.6552 35.6246C24.9456 35.6246 22.908 33.5072 22.908 30.4798C22.908 27.4524 24.9447 25.335 27.6552 25.335C28.9804 25.335 30.128 25.9682 30.8985 27.0172V25.5333H32.876V35.4275V35.4266ZM29.3221 11.8283C29.3221 8.80082 31.3587 6.68346 34.0692 6.68346C35.3945 6.68346 36.542 7.31673 37.3125 8.36575V6.88165H39.2901V16.7761H37.3125V15.2919C36.5407 16.3409 35.3945 16.9744 34.0692 16.9744C31.36 16.9744 29.3221 14.8567 29.3221 11.8295V11.8283ZM43.5567 35.4266H41.5792V30.0243C41.5792 28.0652 40.6694 27.0766 39.1862 27.0766C37.703 27.0766 36.7932 28.0665 36.7932 30.0243V35.4266H34.816V25.5321H36.7932V27.0948C37.407 25.9466 38.4942 25.3337 39.7997 25.3337C41.9562 25.3337 43.5576 26.7187 43.5576 29.6279V35.4253L43.5567 35.4266ZM43.1071 11.8089V16.7761H41.1299V6.88165H43.1071V8.66308C43.8185 7.37718 45.0255 6.68465 46.5281 6.68465C46.765 6.68465 47.0027 6.70402 47.161 6.74387V8.90116C46.8651 8.80204 46.5087 8.74282 46.1127 8.74282C44.2137 8.74282 43.1059 9.77131 43.1059 11.8101L43.1071 11.8089ZM51.9023 35.4266L47.1754 30.2223V35.4266H45.197V20.5853H47.1754V29.9251L51.4277 25.5321H54.0572L49.4092 30.0437L54.4122 35.4253H51.901L51.9023 35.4266ZM54.915 8.62319H52.0665V13.392C52.0665 14.6187 52.6005 15.153 53.7481 15.153C54.1829 15.153 54.579 15.0939 54.915 14.9753V16.7363C54.5587 16.8546 53.9461 16.9744 53.3723 16.9744C51.4733 16.9744 50.089 16.202 50.089 13.5118V8.62438H48.4669V6.88287H50.089V3.95454H52.0665V6.88287H54.915V8.62438V8.62319ZM57.3017 35.4266H55.3242V25.5321H57.3017V35.4266ZM56.3125 23.3759C55.561 23.3759 55.0079 22.8019 55.0079 22.0501C55.0079 21.2986 55.561 20.7436 56.3125 20.7436C57.0636 20.7436 57.6183 21.2974 57.6183 22.0501C57.6183 22.8031 57.0843 23.3759 56.3125 23.3759ZM67.8823 35.4266H65.9048V30.0243C65.9048 28.0652 64.9953 27.0766 63.5118 27.0766C62.0286 27.0766 61.1188 28.0665 61.1188 30.0243V35.4266H59.1416V25.5321H61.1188V27.0948C61.7326 25.9466 62.8197 25.3337 64.1256 25.3337C66.2817 25.3337 67.8832 26.7187 67.8832 29.6279V35.4253L67.8823 35.4266ZM79.0557 35.5063C79.0557 38.5144 76.8995 40.5723 74.1899 40.5723C71.4807 40.5723 69.6808 38.8504 69.3245 36.2979H71.3224C71.5795 37.782 72.6476 38.7512 74.1899 38.7512C76.0092 38.7512 77.0769 37.406 77.0769 35.5063V33.9437C76.3051 34.9927 75.1588 35.6259 73.8336 35.6259C71.1243 35.6259 69.0864 33.5085 69.0864 30.4811C69.0864 27.4536 71.1231 25.3362 73.8336 25.3362C75.1588 25.3362 76.3064 25.9695 77.0769 27.0184V25.5346H79.0544V35.5073L79.0557 35.5063Z" fill="#232323"/>
</g>
<defs>
<clipPath id="clip0_38965_62047">
<rect width="92.9162" height="56" fill="white"/>
</clipPath>
</defs>
</svg>
