<svg width="20" height="20" viewBox="0 0 20 20" fill="none" xmlns="http://www.w3.org/2000/svg">
<g clip-path="url(#clip0_30159_22084)">
<path d="M14.2692 3.5C16.6895 3.5 18.2947 5.02923 19.1798 7.56293C19.7712 9.256 20 11.2274 20 13.1786C20 16.0177 19.3026 17.1429 17.1747 17.1429C16.1299 17.1429 15.4127 16.4817 14.1433 14.8433C13.1278 13.5325 12.7418 13.125 12.609 13.125H7.39103C7.22815 13.125 6.69536 13.6383 5.69611 14.8457L5.68252 14.8621C4.19754 16.6565 3.69562 17.1429 2.82532 17.1429C0.697406 17.1429 0 16.0177 0 13.1786C0 11.2274 0.228772 9.256 0.820203 7.56293C1.70529 5.02923 3.31054 3.5 5.73077 3.5H14.2692ZM14.2692 5H5.73077C2.72456 5 1.5 8.50549 1.5 13.1786C1.5 15.2948 1.71574 15.6429 2.82532 15.6429C2.98463 15.6429 3.5134 15.1304 4.52692 13.9058L4.54054 13.8893C5.99941 12.1266 6.52002 11.625 7.39103 11.625H12.609C13.4965 11.625 13.7764 11.9206 15.3291 13.9246C16.2647 15.1322 16.8186 15.6429 17.1747 15.6429C18.2843 15.6429 18.5 15.2948 18.5 13.1786C18.5 8.50549 17.2754 5 14.2692 5ZM5.95 6.42857C6.21431 6.42857 6.42857 6.64284 6.42857 6.90714L6.42809 7.8569L7.37857 7.85714C7.64288 7.85714 7.85714 8.07141 7.85714 8.33571V8.80714C7.85714 9.07145 7.64288 9.28571 7.37857 9.28571L6.42809 9.28524L6.42857 10.2357C6.42857 10.5 6.21431 10.7143 5.95 10.7143H5.47857C5.21426 10.7143 5 10.5 5 10.2357L4.99976 9.28524L4.05 9.28571C3.78569 9.28571 3.57143 9.07145 3.57143 8.80714V8.33571C3.57143 8.07141 3.78569 7.85714 4.05 7.85714L4.99976 7.8569L5 6.90714C5 6.64284 5.21426 6.42857 5.47857 6.42857H5.95ZM14.5214 9.28571C14.7857 9.28571 15 9.49998 15 9.76429V10.2357C15 10.5 14.7857 10.7143 14.5214 10.7143H14.05C13.7857 10.7143 13.5714 10.5 13.5714 10.2357V9.76429C13.5714 9.49998 13.7857 9.28571 14.05 9.28571H14.5214ZM13.0929 7.85714C13.3572 7.85714 13.5714 8.07141 13.5714 8.33571V8.80714C13.5714 9.07145 13.3572 9.28571 13.0929 9.28571H12.6214C12.3571 9.28571 12.1429 9.07145 12.1429 8.80714V8.33571C12.1429 8.07141 12.3571 7.85714 12.6214 7.85714H13.0929ZM15.95 7.85714C16.2143 7.85714 16.4286 8.07141 16.4286 8.33571V8.80714C16.4286 9.07145 16.2143 9.28571 15.95 9.28571H15.4786C15.2143 9.28571 15 9.07145 15 8.80714V8.33571C15 8.07141 15.2143 7.85714 15.4786 7.85714H15.95ZM14.5214 6.42857C14.7857 6.42857 15 6.64284 15 6.90714V7.37857C15 7.64288 14.7857 7.85714 14.5214 7.85714H14.05C13.7857 7.85714 13.5714 7.64288 13.5714 7.37857V6.90714C13.5714 6.64284 13.7857 6.42857 14.05 6.42857H14.5214Z" fill="#8F8F8F"/>
</g>
<defs>
<clipPath id="clip0_30159_22084">
<rect width="20" height="20" fill="white"/>
</clipPath>
</defs>
</svg>
