<svg width="20" height="20" viewBox="0 0 20 20" fill="none" xmlns="http://www.w3.org/2000/svg">
<path fill-rule="evenodd" clip-rule="evenodd" d="M1.6665 8.19475C1.6665 5.51159 3.83029 3.33333 6.48421 3.33333C7.81979 3.33333 8.99332 3.85508 9.9951 4.80845C10.9887 3.85261 12.1663 3.33333 13.5155 3.33333C16.1694 3.33333 18.3332 5.51159 18.3332 8.19475C18.3332 9.63041 17.9594 10.7425 17.0495 11.89C16.1884 12.9758 14.8383 14.1009 12.9427 15.612L12.9402 15.614L10.9917 17.1547C10.4095 17.6151 9.59019 17.6151 9.00799 17.1547L7.05952 15.614L7.05694 15.612C5.16136 14.1009 3.81124 12.9758 2.95021 11.89C2.04025 10.7425 1.6665 9.63041 1.6665 8.19475ZM6.48421 5C4.76313 5 3.33317 6.41964 3.33317 8.19475C3.33317 9.26197 3.58443 10.0075 4.2561 10.8544C4.97653 11.7629 6.16429 12.7689 8.09444 14.3076L8.09584 14.3087L9.99984 15.8143L11.9038 14.3087L11.9052 14.3076C13.8354 12.7689 15.0231 11.7629 15.7436 10.8544C16.4152 10.0075 16.6665 9.26197 16.6665 8.19475C16.6665 6.41964 15.2365 5 13.5155 5C12.463 5 11.5166 5.46926 10.6535 6.56072C10.4964 6.75942 10.2574 6.87586 10.0041 6.87715C9.75075 6.87844 9.5106 6.76443 9.35146 6.56733C8.4631 5.46706 7.5133 5 6.48421 5Z" fill="#8F8F8F"/>
</svg>
