<svg width="20" height="20" viewBox="0 0 20 20" fill="none" xmlns="http://www.w3.org/2000/svg">
<path fill-rule="evenodd" clip-rule="evenodd" d="M1.75 15.8334C1.75 15.4192 2.08579 15.0834 2.5 15.0834H17.5C17.9142 15.0834 18.25 15.4192 18.25 15.8334C18.25 16.2476 17.9142 16.5834 17.5 16.5834H2.5C2.08579 16.5834 1.75 16.2476 1.75 15.8334Z" fill="#8F8F8F"/>
<path fill-rule="evenodd" clip-rule="evenodd" d="M13.75 4.91675C13.3358 4.91675 13 4.58096 13 4.16675C13 3.75253 13.3358 3.41675 13.75 3.41675H17.5C17.9142 3.41675 18.25 3.75253 18.25 4.16675V7.91675C18.25 8.33096 17.9142 8.66675 17.5 8.66675C17.0858 8.66675 16.75 8.33096 16.75 7.91675V5.97741L11.7803 10.9471C11.4874 11.24 11.0126 11.24 10.7197 10.9471L7.91667 8.14407L3.03033 13.0304C2.73744 13.3233 2.26256 13.3233 1.96967 13.0304C1.67678 12.7375 1.67678 12.2626 1.96967 11.9698L7.38634 6.55308C7.67923 6.26019 8.1541 6.26019 8.447 6.55308L11.25 9.35609L15.6893 4.91675H13.75Z" fill="#8F8F8F"/>
</svg>
