<svg width="20" height="20" viewBox="0 0 20 20" fill="none" xmlns="http://www.w3.org/2000/svg">
<path fill-rule="evenodd" clip-rule="evenodd" d="M7.05748 5.43302C7.22682 5.80663 7.06666 6.24929 6.69974 6.42172L3.27389 8.03172L6.74001 9.93213C7.09583 10.1272 7.22895 10.5791 7.03736 10.9414C6.84577 11.3037 6.40201 11.4392 6.0462 11.2441L1.1496 8.55942C0.671529 8.29731 0.693115 7.60339 1.18655 7.3715L6.08647 5.06876C6.4534 4.89632 6.88813 5.0594 7.05748 5.43302Z" fill="#8F8F8F"/>
<path fill-rule="evenodd" clip-rule="evenodd" d="M12.9425 14.567C12.7732 14.1934 12.9333 13.7507 13.3003 13.5783L16.7261 11.9683L13.26 10.0679C12.9042 9.87279 12.771 9.42094 12.9626 9.05864C13.1542 8.69634 13.598 8.56078 13.9538 8.75587L18.8504 11.4406C19.3285 11.7027 19.3069 12.3966 18.8134 12.6285L13.9135 14.9312C13.5466 15.1037 13.1119 14.9406 12.9425 14.567Z" fill="#8F8F8F"/>
<path fill-rule="evenodd" clip-rule="evenodd" d="M11.869 2.52487C12.3155 2.63649 12.587 3.08894 12.4753 3.53543L9.142 16.8688C9.03038 17.3153 8.57794 17.5867 8.13144 17.4751C7.68494 17.3635 7.41348 16.911 7.5251 16.4645L10.8584 3.13121C10.9701 2.68471 11.4225 2.41324 11.869 2.52487Z" fill="#8F8F8F"/>
</svg>
